<svg xmlns="http://www.w3.org/2000/svg" version="1.1" xmlns:xlink="http://www.w3.org/1999/xlink" xmlns:svgjs="http://svgjs.dev/svgjs" width="128" height="128" viewBox="0 0 128 128"><g transform="matrix(0.8046875,0,0,0.8046875,12.41184074821259,12.814873242367177)"><svg viewBox="0 0 98 98" data-background-color="#ffffff" preserveAspectRatio="xMidYMid meet" height="127" width="128" xmlns="http://www.w3.org/2000/svg" xmlns:xlink="http://www.w3.org/1999/xlink"><g id="tight-bounds" transform="matrix(1,0,0,1,0.08387967645792571,0.08387967645792571)"><svg viewBox="0 0 97.83224064708415 97.83224064708415" height="97.83224064708415" width="97.83224064708415"><g><svg></svg></g><g><svg viewBox="0 0 97.83224064708415 97.83224064708415" height="97.83224064708415" width="97.83224064708415"><g><path d="M0 48.916c0-27.016 21.9-48.916 48.916-48.916 27.016 0 48.916 21.9 48.916 48.916 0 27.016-21.9 48.916-48.916 48.916-27.016 0-48.916-21.9-48.916-48.916zM48.916 93.244c24.481 0 44.328-19.846 44.328-44.328 0-24.481-19.846-44.328-44.328-44.327-24.481 0-44.328 19.846-44.327 44.327 0 24.481 19.846 44.328 44.327 44.328z" data-fill-palette-color="tertiary" fill="#00337c" stroke="transparent"></path><ellipse rx="46.95947551060039" ry="46.95947551060039" cx="48.916120323542074" cy="48.916120323542074" fill="#00337c" stroke="transparent" stroke-width="0" fill-opacity="1" data-fill-palette-color="tertiary"></ellipse></g><g transform="matrix(1,0,0,1,29.43351042141245,23.47539391502934)"><svg viewBox="0 0 38.96521980425925 50.88145281702547" height="50.88145281702547" width="38.96521980425925"><g><svg viewBox="0 0 38.96521980425925 50.88145281702547" height="50.88145281702547" width="38.96521980425925"><g><svg viewBox="0 0 38.96521980425925 50.88145281702547" height="50.88145281702547" width="38.96521980425925"><g><svg viewBox="0 0 38.96521980425925 50.88145281702547" height="50.88145281702547" width="38.96521980425925"><g><svg viewBox="0 0 38.96521980425925 50.88145281702547" height="50.88145281702547" width="38.96521980425925"><g><svg viewBox="0 0 38.96521980425925 50.88145281702547" height="50.88145281702547" width="38.96521980425925"><g><svg xmlns="http://www.w3.org/2000/svg" xmlns:xlink="http://www.w3.org/1999/xlink" version="1.0" x="0" y="0" viewBox="3 0 19.910903852410204 26" style="enable-background:new 0 0 26 26;" xml:space="preserve" height="50.88145281702547" width="38.96521980425925" class="icon-icon-0" data-fill-palette-color="quaternary" id="icon-0"><g fill="#ffffff" data-fill-palette-color="quaternary"><path d="M21.6 2L21.6 2H18V1c0-0.552-0.447-1-1-1H9C8.448 0 8 0.448 8 1v1H4.4C3.6 2 3 2.6 3 3.4v21.1C3 25.4 3.6 26 4.4 26h17.1c0.8 0 1.4-0.6 1.4-1.4V3.4C23 2.6 22.4 2 21.6 2zM10 2h6v2h-6V2zM21 24H5V4h3v1c0 0.552 0.448 1 1 1h8c0.553 0 1-0.448 1-1V4h3V24z" fill="#ffffff" data-fill-palette-color="quaternary"></path><path d="M7 13h4V9H7V13zM8 10h2v2H8V10z" fill="#ffffff" data-fill-palette-color="quaternary"></path><rect x="13" y="10" width="6" height="2" fill="#ffffff" data-fill-palette-color="quaternary"></rect><rect x="7" y="15" width="4" height="4" fill="#ffffff" data-fill-palette-color="quaternary"></rect><rect x="13" y="16" width="6" height="2" fill="#ffffff" data-fill-palette-color="quaternary"></rect></g></svg></g></svg></g></svg></g></svg></g></svg></g><g></g></svg></g></svg></g></svg></g><defs></defs></svg><rect width="97.83224064708415" height="97.83224064708415" fill="none" stroke="none" visibility="hidden"></rect></g></svg></g></svg>