<svg xmlns="http://www.w3.org/2000/svg" version="1.1" xmlns:xlink="http://www.w3.org/1999/xlink" xmlns:svgjs="http://svgjs.dev/svgjs" width="2000" height="1999" viewBox="0 0 2000 1999"><g transform="matrix(1,0,0,1,-0.431486880466764,-0.4312711370263287)"><svg viewBox="0 0 343 343" data-background-color="#ffffff" preserveAspectRatio="xMidYMid meet" height="1999" width="2000" xmlns="http://www.w3.org/2000/svg" xmlns:xlink="http://www.w3.org/1999/xlink"><g id="tight-bounds" transform="matrix(1,0,0,1,0.0740000000000407,0.07400000000001228)"><svg viewBox="0 0 342.85155851775386 342.85155851775386" height="342.85155851775386" width="342.85155851775386"><g><svg></svg></g><g><svg viewBox="0 0 342.85155851775386 342.85155851775386" height="342.85155851775386" width="342.85155851775386"><g><path d="M0 171.426c0-94.676 76.75-171.426 171.426-171.426 94.676 0 171.426 76.75 171.426 171.426 0 94.676-76.75 171.426-171.426 171.426-94.676 0-171.426-76.75-171.426-171.426zM171.426 339.329c92.73 0 167.903-75.173 167.903-167.903 0-92.73-75.173-167.903-167.903-167.903-92.73 0-167.903 75.173-167.903 167.903 0 92.73 75.173 167.903 167.903 167.903z" data-fill-palette-color="tertiary" fill="#00337c" stroke="transparent"></path><ellipse rx="164.56874808852186" ry="164.56874808852186" cx="171.42577925887693" cy="171.42577925887693" fill="#00337c" stroke="transparent" stroke-width="0" fill-opacity="1" data-fill-palette-color="tertiary"></ellipse></g><g transform="matrix(1,0,0,1,64.84655864529837,120.29231025843839)"><svg viewBox="0 0 213.1584412271571 102.26693800087708" height="102.26693800087708" width="213.1584412271571"><g><svg viewBox="0 0 213.1584412271571 102.26693800087708" height="102.26693800087708" width="213.1584412271571"><g><svg viewBox="0 0 213.1584412271571 102.26693800087708" height="102.26693800087708" width="213.1584412271571"><g transform="matrix(1,0,0,1,0,63.20507043061667)"><svg viewBox="0 0 213.1584412271571 39.061867570260404" height="39.061867570260404" width="213.1584412271571"><g id="textblocktransform"><svg viewBox="0 0 213.1584412271571 39.061867570260404" height="39.061867570260404" width="213.1584412271571" id="textblock"><g><svg viewBox="0 0 213.1584412271571 39.061867570260404" height="39.061867570260404" width="213.1584412271571"><g transform="matrix(1,0,0,1,0,0)"><svg width="213.1584412271571" viewBox="1.7999999523162842 -35.5 196.44000244140625 36" height="39.061867570260404" data-palette-color="#ffffff"><path d="M16.05 0.5L16.05 0.5Q11.4 0.5 8.28-0.88 5.15-2.25 3.53-4.48 1.9-6.7 1.8-9.15L1.8-9.15Q1.8-9.6 2.1-9.9 2.4-10.2 2.85-10.2L2.85-10.2 7.3-10.2Q7.95-10.2 8.28-9.93 8.6-9.65 8.85-9.25L8.85-9.25Q9.15-8.3 10-7.38 10.85-6.45 12.33-5.85 13.8-5.25 16.05-5.25L16.05-5.25Q19.65-5.25 21.43-6.45 23.2-7.65 23.2-9.7L23.2-9.7Q23.2-11.15 22.25-12.03 21.3-12.9 19.33-13.63 17.35-14.35 14.1-15.15L14.1-15.15Q10.35-16.05 7.83-17.32 5.3-18.6 4.03-20.55 2.75-22.5 2.75-25.5L2.75-25.5Q2.75-28.4 4.33-30.65 5.9-32.9 8.83-34.2 11.75-35.5 15.8-35.5L15.8-35.5Q19.05-35.5 21.55-34.63 24.05-33.75 25.7-32.33 27.35-30.9 28.23-29.28 29.1-27.65 29.15-26.1L29.15-26.1Q29.15-25.7 28.88-25.38 28.6-25.05 28.1-25.05L28.1-25.05 23.45-25.05Q23.05-25.05 22.65-25.25 22.25-25.45 22-26L22-26Q21.7-27.55 20.05-28.65 18.4-29.75 15.8-29.75L15.8-29.75Q13.1-29.75 11.45-28.75 9.8-27.75 9.8-25.65L9.8-25.65Q9.8-24.25 10.63-23.33 11.45-22.4 13.28-21.7 15.1-21 18.1-20.2L18.1-20.2Q22.35-19.25 25.05-18 27.75-16.75 29-14.83 30.25-12.9 30.25-9.95L30.25-9.95Q30.25-6.65 28.48-4.33 26.7-2 23.5-0.75 20.3 0.5 16.05 0.5ZM49.95 0.5L49.95 0.5Q45.6 0.5 42.4-0.98 39.2-2.45 37.45-5.53 35.7-8.6 35.7-13.4L35.7-13.4 35.7-33.75Q35.7-34.3 36.05-34.65 36.4-35 36.9-35L36.9-35 41.45-35Q42-35 42.32-34.65 42.65-34.3 42.65-33.75L42.65-33.75 42.65-13.4Q42.65-9.3 44.6-7.33 46.55-5.35 49.95-5.35L49.95-5.35Q53.35-5.35 55.27-7.33 57.2-9.3 57.2-13.4L57.2-13.4 57.2-33.75Q57.2-34.3 57.55-34.65 57.9-35 58.45-35L58.45-35 62.95-35Q63.5-35 63.82-34.65 64.15-34.3 64.15-33.75L64.15-33.75 64.15-13.4Q64.15-8.6 62.42-5.53 60.7-2.45 57.52-0.98 54.35 0.5 49.95 0.5ZM77.4 0L72.84 0Q72.34 0 72-0.35 71.65-0.7 71.65-1.2L71.65-1.2 71.65-33.75Q71.65-34.3 72-34.65 72.34-35 72.84-35L72.84-35 85.8-35Q91.84-35 95.34-32.2 98.84-29.4 98.84-24.05L98.84-24.05Q98.84-20.35 97.02-17.9 95.2-15.45 92.15-14.35L92.15-14.35 99.45-1.6Q99.59-1.3 99.59-1.05L99.59-1.05Q99.59-0.6 99.27-0.3 98.95 0 98.55 0L98.55 0 94 0Q93.15 0 92.7-0.45 92.25-0.9 92-1.35L92-1.35 85.55-13.2 78.59-13.2 78.59-1.2Q78.59-0.7 78.27-0.35 77.95 0 77.4 0L77.4 0ZM78.59-29.45L78.59-18.85 85.65-18.85Q88.7-18.85 90.2-20.23 91.7-21.6 91.7-24.1L91.7-24.1Q91.7-26.6 90.22-28.03 88.75-29.45 85.65-29.45L85.65-29.45 78.59-29.45ZM120.99 0L115.49 0Q114.69 0 114.24-0.4 113.79-0.8 113.59-1.4L113.59-1.4 102.89-33.5Q102.79-33.75 102.79-33.95L102.79-33.95Q102.79-34.4 103.09-34.7 103.39-35 103.84-35L103.84-35 108.24-35Q108.94-35 109.32-34.63 109.69-34.25 109.79-33.9L109.79-33.9 118.24-8.15 126.69-33.9Q126.79-34.25 127.17-34.63 127.54-35 128.24-35L128.24-35 132.64-35Q133.04-35 133.37-34.7 133.69-34.4 133.69-33.95L133.69-33.95Q133.69-33.75 133.59-33.5L133.59-33.5 122.89-1.4Q122.69-0.8 122.24-0.4 121.79 0 120.99 0L120.99 0ZM162.59 0L140.19 0Q139.69 0 139.34-0.35 138.99-0.7 138.99-1.2L138.99-1.2 138.99-33.75Q138.99-34.3 139.34-34.65 139.69-35 140.19-35L140.19-35 162.19-35Q162.74-35 163.09-34.65 163.44-34.3 163.44-33.75L163.44-33.75 163.44-30.45Q163.44-29.95 163.09-29.6 162.74-29.25 162.19-29.25L162.19-29.25 145.74-29.25 145.74-20.4 161.09-20.4Q161.64-20.4 161.99-20.08 162.34-19.75 162.34-19.2L162.34-19.2 162.34-16.1Q162.34-15.55 161.99-15.23 161.64-14.9 161.09-14.9L161.09-14.9 145.74-14.9 145.74-5.75 162.59-5.75Q163.14-5.75 163.49-5.4 163.84-5.05 163.84-4.5L163.84-4.5 163.84-1.2Q163.84-0.7 163.49-0.35 163.14 0 162.59 0L162.59 0ZM185.04 0L180.49 0Q179.99 0 179.64-0.35 179.29-0.7 179.29-1.2L179.29-1.2 179.29-12.5 167.49-33.4Q167.44-33.5 167.39-33.65 167.34-33.8 167.34-33.95L167.34-33.95Q167.34-34.4 167.64-34.7 167.94-35 168.34-35L168.34-35 172.79-35Q173.39-35 173.76-34.7 174.14-34.4 174.29-34.05L174.29-34.05 182.79-19.5 191.24-34.05Q191.44-34.4 191.81-34.7 192.19-35 192.79-35L192.79-35 197.19-35Q197.64-35 197.94-34.7 198.24-34.4 198.24-33.95L198.24-33.95Q198.24-33.8 198.21-33.65 198.19-33.5 198.09-33.4L198.09-33.4 186.29-12.5 186.29-1.2Q186.29-0.7 185.94-0.35 185.59 0 185.04 0L185.04 0Z" opacity="1" transform="matrix(1,0,0,1,0,0)" fill="#ffffff" class="undefined-text-0" data-fill-palette-color="quaternary" id="text-0"></path></svg></g></svg></g></svg></g></svg></g><g transform="matrix(1,0,0,1,85.90883019251126,0)"><svg viewBox="0 0 41.340780842134606 53.983500982099876" height="53.983500982099876" width="41.340780842134606"><g><svg xmlns="http://www.w3.org/2000/svg" xmlns:xlink="http://www.w3.org/1999/xlink" version="1.0" x="0" y="0" viewBox="3 0 19.910903930664062 26" style="enable-background:new 0 0 26 26;" xml:space="preserve" height="53.983500982099876" width="41.340780842134606" class="icon-icon-0" data-fill-palette-color="quaternary" id="icon-0"><g fill="#ffffff" data-fill-palette-color="quaternary"><path d="M21.6 2L21.6 2H18V1c0-0.552-0.447-1-1-1H9C8.448 0 8 0.448 8 1v1H4.4C3.6 2 3 2.6 3 3.4v21.1C3 25.4 3.6 26 4.4 26h17.1c0.8 0 1.4-0.6 1.4-1.4V3.4C23 2.6 22.4 2 21.6 2zM10 2h6v2h-6V2zM21 24H5V4h3v1c0 0.552 0.448 1 1 1h8c0.553 0 1-0.448 1-1V4h3V24z" fill="#ffffff" data-fill-palette-color="quaternary"></path><path d="M7 13h4V9H7V13zM8 10h2v2H8V10z" fill="#ffffff" data-fill-palette-color="quaternary"></path><rect x="13" y="10" width="6" height="2" fill="#ffffff" data-fill-palette-color="quaternary"></rect><rect x="7" y="15" width="4" height="4" fill="#ffffff" data-fill-palette-color="quaternary"></rect><rect x="13" y="16" width="6" height="2" fill="#ffffff" data-fill-palette-color="quaternary"></rect></g></svg></g></svg></g><g></g></svg></g></svg></g></svg></g></svg></g><defs></defs></svg><rect width="342.85155851775386" height="342.85155851775386" fill="none" stroke="none" visibility="hidden"></rect></g></svg></g></svg>